<mxfile host="app.diagrams.net" modified="2024-05-28T11:11:07.394Z" agent="Mozilla/5.0 (Windows NT 10.0; Win64; x64) AppleWebKit/537.36 (KHTML, like Gecko) Chrome/124.0.0.0 Safari/537.36" etag="ZApayPT6omXrTW6q-twr" version="24.4.9" type="google">
  <diagram name="Page-1" id="MFQgMOVYBCBhJre1kZs1">
    <mxGraphModel grid="1" page="1" gridSize="10" guides="1" tooltips="1" connect="1" arrows="1" fold="1" pageScale="1" pageWidth="827" pageHeight="1169" math="0" shadow="0">
      <root>
        <mxCell id="0" />
        <mxCell id="1" parent="0" />
        <mxCell id="YNbER13SbUwJXVdNdQxA-6" style="edgeStyle=orthogonalEdgeStyle;rounded=0;orthogonalLoop=1;jettySize=auto;html=1;entryX=0.5;entryY=0;entryDx=0;entryDy=0;" edge="1" parent="1" source="YNbER13SbUwJXVdNdQxA-1" target="YNbER13SbUwJXVdNdQxA-3">
          <mxGeometry relative="1" as="geometry" />
        </mxCell>
        <mxCell id="YNbER13SbUwJXVdNdQxA-1" value="Клиент создаёт заказ" style="rounded=0;whiteSpace=wrap;html=1;" vertex="1" parent="1">
          <mxGeometry x="260" y="80" width="120" height="40" as="geometry" />
        </mxCell>
        <mxCell id="YNbER13SbUwJXVdNdQxA-7" style="edgeStyle=orthogonalEdgeStyle;rounded=0;orthogonalLoop=1;jettySize=auto;html=1;entryX=0.5;entryY=0;entryDx=0;entryDy=0;" edge="1" parent="1" source="YNbER13SbUwJXVdNdQxA-3" target="YNbER13SbUwJXVdNdQxA-4">
          <mxGeometry relative="1" as="geometry" />
        </mxCell>
        <mxCell id="YNbER13SbUwJXVdNdQxA-8" style="edgeStyle=orthogonalEdgeStyle;rounded=0;orthogonalLoop=1;jettySize=auto;html=1;entryX=0.5;entryY=0;entryDx=0;entryDy=0;curved=1;" edge="1" parent="1" source="YNbER13SbUwJXVdNdQxA-3" target="YNbER13SbUwJXVdNdQxA-5">
          <mxGeometry relative="1" as="geometry" />
        </mxCell>
        <mxCell id="YNbER13SbUwJXVdNdQxA-3" value="Приложение передаёт заказ в ресторан" style="rounded=0;whiteSpace=wrap;html=1;" vertex="1" parent="1">
          <mxGeometry x="260" y="160" width="120" height="40" as="geometry" />
        </mxCell>
        <mxCell id="YNbER13SbUwJXVdNdQxA-17" style="edgeStyle=orthogonalEdgeStyle;rounded=0;orthogonalLoop=1;jettySize=auto;html=1;entryX=0.5;entryY=0;entryDx=0;entryDy=0;" edge="1" parent="1" source="YNbER13SbUwJXVdNdQxA-4" target="YNbER13SbUwJXVdNdQxA-12">
          <mxGeometry relative="1" as="geometry" />
        </mxCell>
        <mxCell id="YNbER13SbUwJXVdNdQxA-4" value="Ресторан принимает заказ" style="rounded=0;whiteSpace=wrap;html=1;" vertex="1" parent="1">
          <mxGeometry x="260" y="240" width="120" height="40" as="geometry" />
        </mxCell>
        <mxCell id="YNbER13SbUwJXVdNdQxA-11" style="edgeStyle=orthogonalEdgeStyle;rounded=0;orthogonalLoop=1;jettySize=auto;html=1;entryX=0.5;entryY=0;entryDx=0;entryDy=0;" edge="1" parent="1" source="YNbER13SbUwJXVdNdQxA-5" target="YNbER13SbUwJXVdNdQxA-10">
          <mxGeometry relative="1" as="geometry" />
        </mxCell>
        <mxCell id="YNbER13SbUwJXVdNdQxA-5" value="Ресторан отклоняет заказ" style="rounded=0;whiteSpace=wrap;html=1;" vertex="1" parent="1">
          <mxGeometry x="460" y="240" width="120" height="40" as="geometry" />
        </mxCell>
        <mxCell id="YNbER13SbUwJXVdNdQxA-10" value="Приложение уведомляет клиента" style="rounded=0;whiteSpace=wrap;html=1;" vertex="1" parent="1">
          <mxGeometry x="460" y="320" width="120" height="40" as="geometry" />
        </mxCell>
        <mxCell id="YNbER13SbUwJXVdNdQxA-18" style="edgeStyle=orthogonalEdgeStyle;rounded=0;orthogonalLoop=1;jettySize=auto;html=1;entryX=0.5;entryY=0;entryDx=0;entryDy=0;" edge="1" parent="1" source="YNbER13SbUwJXVdNdQxA-12" target="YNbER13SbUwJXVdNdQxA-13">
          <mxGeometry relative="1" as="geometry" />
        </mxCell>
        <mxCell id="YNbER13SbUwJXVdNdQxA-12" value="Ресторан готовит блюда" style="rounded=0;whiteSpace=wrap;html=1;" vertex="1" parent="1">
          <mxGeometry x="260" y="320" width="120" height="40" as="geometry" />
        </mxCell>
        <mxCell id="YNbER13SbUwJXVdNdQxA-19" style="edgeStyle=orthogonalEdgeStyle;rounded=0;orthogonalLoop=1;jettySize=auto;html=1;entryX=0.5;entryY=0;entryDx=0;entryDy=0;" edge="1" parent="1" source="YNbER13SbUwJXVdNdQxA-13" target="YNbER13SbUwJXVdNdQxA-14">
          <mxGeometry relative="1" as="geometry" />
        </mxCell>
        <mxCell id="YNbER13SbUwJXVdNdQxA-13" value="Ресторан передаёт заказ курьеру" style="rounded=0;whiteSpace=wrap;html=1;" vertex="1" parent="1">
          <mxGeometry x="260" y="400" width="120" height="40" as="geometry" />
        </mxCell>
        <mxCell id="YNbER13SbUwJXVdNdQxA-20" style="edgeStyle=orthogonalEdgeStyle;rounded=0;orthogonalLoop=1;jettySize=auto;html=1;entryX=0.5;entryY=0;entryDx=0;entryDy=0;" edge="1" parent="1" source="YNbER13SbUwJXVdNdQxA-14" target="YNbER13SbUwJXVdNdQxA-15">
          <mxGeometry relative="1" as="geometry" />
        </mxCell>
        <mxCell id="YNbER13SbUwJXVdNdQxA-14" value="Курьер забирает заказ" style="rounded=0;whiteSpace=wrap;html=1;" vertex="1" parent="1">
          <mxGeometry x="260" y="480" width="120" height="40" as="geometry" />
        </mxCell>
        <mxCell id="YNbER13SbUwJXVdNdQxA-23" style="edgeStyle=orthogonalEdgeStyle;rounded=0;orthogonalLoop=1;jettySize=auto;html=1;entryX=0.5;entryY=0;entryDx=0;entryDy=0;" edge="1" parent="1" source="YNbER13SbUwJXVdNdQxA-15" target="YNbER13SbUwJXVdNdQxA-16">
          <mxGeometry relative="1" as="geometry" />
        </mxCell>
        <mxCell id="YNbER13SbUwJXVdNdQxA-15" value="Курьер доставляет заказ клиенту" style="rounded=0;whiteSpace=wrap;html=1;" vertex="1" parent="1">
          <mxGeometry x="260" y="560" width="120" height="40" as="geometry" />
        </mxCell>
        <mxCell id="YNbER13SbUwJXVdNdQxA-24" style="edgeStyle=orthogonalEdgeStyle;rounded=0;orthogonalLoop=1;jettySize=auto;html=1;" edge="1" parent="1" source="YNbER13SbUwJXVdNdQxA-16">
          <mxGeometry relative="1" as="geometry">
            <mxPoint x="320" y="720" as="targetPoint" />
          </mxGeometry>
        </mxCell>
        <mxCell id="YNbER13SbUwJXVdNdQxA-16" value="Клиент получает заказ" style="rounded=0;whiteSpace=wrap;html=1;" vertex="1" parent="1">
          <mxGeometry x="260" y="640" width="120" height="40" as="geometry" />
        </mxCell>
        <mxCell id="YNbER13SbUwJXVdNdQxA-26" style="edgeStyle=orthogonalEdgeStyle;rounded=0;orthogonalLoop=1;jettySize=auto;html=1;" edge="1" parent="1" source="YNbER13SbUwJXVdNdQxA-25">
          <mxGeometry relative="1" as="geometry">
            <mxPoint x="320" y="800" as="targetPoint" />
          </mxGeometry>
        </mxCell>
        <mxCell id="YNbER13SbUwJXVdNdQxA-25" value="Клиент оплачивает заказ" style="rounded=0;whiteSpace=wrap;html=1;" vertex="1" parent="1">
          <mxGeometry x="260" y="720" width="120" height="40" as="geometry" />
        </mxCell>
        <mxCell id="YNbER13SbUwJXVdNdQxA-27" value="Приложение подтверждает оплату" style="rounded=0;whiteSpace=wrap;html=1;" vertex="1" parent="1">
          <mxGeometry x="260" y="800" width="120" height="40" as="geometry" />
        </mxCell>
      </root>
    </mxGraphModel>
  </diagram>
</mxfile>
